PathFileType	4	(X/Y/Z)	/Users/itak/Documents/Research/Walk-IL/dataset/trc/00294_00010.trc
DataRate	CameraRate	NumFrames	NumMarkers	Units	OrigDataRate	OrigDataStartFrame	OrigNumFrames
100.000000	100.000000	4	56	mm	100.000000	602	688
Frame#	Time	RPSI			LPSI			L3			STRN			T10			C7			CLAV			RBAK			LBAK			LSHO			LUPA			LAEL			LAOL			LWTS			LWPS			LFRA			LHTS			RSHO			RUPA			RAEL			RAOL			RWTS			RWPS			RFRA			RIFD			RBHD			LFHD			RFHD			LBHD			RHIP			RASI			LASI			LKNE			LTHI			LANK			LTIP			LTOE			LMT1			LMT5			LHEE			RKNE			RTHI			RANK			RTIP			RTOE			RMT1			RMT5			RHEE			LHPS			RHTS			RHPS			LIFD			LHIP			*53			*54			*55			
		X1	Y1	Z1	X2	Y2	Z2	X3	Y3	Z3	X4	Y4	Z4	X5	Y5	Z5	X6	Y6	Z6	X7	Y7	Z7	X8	Y8	Z8	X9	Y9	Z9	X10	Y10	Z10	X11	Y11	Z11	X12	Y12	Z12	X13	Y13	Z13	X14	Y14	Z14	X15	Y15	Z15	X16	Y16	Z16	X17	Y17	Z17	X18	Y18	Z18	X19	Y19	Z19	X20	Y20	Z20	X21	Y21	Z21	X22	Y22	Z22	X23	Y23	Z23	X24	Y24	Z24	X25	Y25	Z25	X26	Y26	Z26	X27	Y27	Z27	X28	Y28	Z28	X29	Y29	Z29	X30	Y30	Z30	X31	Y31	Z31	X32	Y32	Z32	X33	Y33	Z33	X34	Y34	Z34	X35	Y35	Z35	X36	Y36	Z36	X37	Y37	Z37	X38	Y38	Z38	X39	Y39	Z39	X40	Y40	Z40	X41	Y41	Z41	X42	Y42	Z42	X43	Y43	Z43	X44	Y44	Z44	X45	Y45	Z45	X46	Y46	Z46	X47	Y47	Z47	X48	Y48	Z48	X49	Y49	Z49	X50	Y50	Z50	X51	Y51	Z51	X52	Y52	Z52	X53	Y53	Z53	X54	Y54	Z54	X55	Y55	Z55	X56	Y56	Z56	

603	6.02	326.7696228027344	1014.402770996094	779.0703125	336.1126403808594	1014.093627929688	953.910400390625	306.2820739746094	1087.990844726562	849.5322265625	33.03656768798828	1232.361083984375	843.6494750976562	303.8336486816406	1200.238159179688	820.2466430664062	229.1092071533203	1435.718872070312	801.5884399414062	85.03596496582031	1337.786499023438	825.4436645507812	286.8515625	1295.63427734375	738.8226928710938	263.1213684082031	1414.756591796875	905.6617431640625	181.2357482910156	1419.992797851562	965.6801147460938	236.4642181396484	1327.931640625	1057.39013671875	256.140625	1140.039672851562	1122.445678710938	297.2189025878906	1104.375854492188	1054.175048828125	131.5932006835938	954.1903076171875	1185.947631835938	189.9664916992188	942.2698364257812	1228.7138671875	239.0252532958984	1050.604736328125	1169.268798828125	100.9475173950195	875.68896484375	1245.984497070312	145.6490325927734	1388.477783203125	658.7520141601562	153.7589874267578	1327.264038085938	598.2125244140625	210.4399719238281	1072.648803710938	547.0902709960938	217.4924011230469	1053.385009765625	639.9701538085938	76.28311157226562	862.9838256835938	525.574951171875	150.5128936767578	856.679931640625	481.9448547363281	190.2592620849609	1008.272827148438	521.2492065429688	54.61582946777344	684.8270263671875	473.9165649414062	173.7629699707031	1587.909423828125	737.9656372070312	15.76010417938232	1609.428100585938	877.52001953125	4.893017292022705	1607.011352539062	785.5753173828125	190.9559936523438	1581.859619140625	883.3211059570312	221.1635894775391	953.6497192382812	685.6759033203125	104.7557067871094	950.8276977539062	760.90478515625	137.2894744873047	968.8796997070312	1008.920837402344	137.4406585693359	515.1898803710938	1087.732666015625	179.0137023925781	650.90625	1091.954956054688	145.4165802001953	57.71126174926758	1134.736572265625	142.3738250732422	286.8179626464844	1120.634643554688	-46.89557266235352	78.09731292724609	1050.235229492188	22.86364364624023	54.20115280151367	1018.744812011719	23.51112174987793	64.38547515869141	1130.468139648438	197.8299407958984	46.82851409912109	1082.485473632812	191.8637390136719	487.7533264160156	724.5431518554688	167.5922241210938	747.3958740234375	696.6826171875	267.4677124023438	37.92578887939453	743.23583984375	190.9220886230469	360.831298828125	744.652099609375	159.7817687988281	65.05335235595703	905.6869506835938	229.1081085205078	54.83420181274414	898.034423828125	171.5761871337891	29.7404727935791	800.8162231445312	339.0344848632812	32.24549102783203	747.7764892578125	165.6476593017578	862.7191772460938	1257.041259765625	48.80148696899414	760.6142578125	464.9090270996094	117.1995086669922	759.4600219726562	447.161865234375	89.02215576171875	786.75341796875	1252.12548828125	273.75634765625	972.1527709960938	1057.078125	nan	nan	nan	nan	nan	nan	nan	nan	nan	
604	6.03	324.7001647949219	1014.263610839844	782.9077758789062	333.3887634277344	1013.712829589844	957.8467407226562	304.01708984375	1087.610717773438	853.6299438476562	31.07770729064941	1231.682250976562	845.5874633789062	301.8909912109375	1199.577758789062	824.7402954101562	227.4721984863281	1435.256958007812	805.3217163085938	82.82473754882812	1337.19482421875	827.8284912109375	285.8160095214844	1295.045654296875	743.2373657226562	260.4183349609375	1414.36279296875	909.828369140625	177.9352874755859	1419.664428710938	968.7720947265625	231.3164367675781	1327.46533203125	1061.5146484375	248.4914245605469	1139.721313476562	1127.40283203125	290.7071838378906	1103.54443359375	1060.158203125	120.9625854492188	955.2958984375	1188.708862304688	178.1225280761719	943.2455444335938	1233.060546875	229.5955657958984	1050.74951171875	1174.180419921875	88.19423675537109	877.5614624023438	1248.641845703125	145.4674987792969	1387.705444335938	661.6978149414062	154.4899749755859	1326.620849609375	601.2061767578125	213.0049896240234	1072.487915039062	550.4189453125	217.8964233398438	1052.6513671875	643.2211303710938	85.41156768798828	859.378173828125	522.7581787109375	162.0745391845703	855.1952514648438	482.6926574707031	195.4515533447266	1007.724975585938	523.5789184570312	71.60415649414062	680.951416015625	469.3818664550781	172.5056304931641	1587.435302734375	741.1321411132812	13.14651870727539	1608.853271484375	879.203369140625	3.171635627746582	1606.342407226562	787.2081298828125	188.3822937011719	1581.504150390625	886.6636962890625	219.4763488769531	953.4905395507812	689.0489501953125	102.6511077880859	950.3547973632812	763.7725219726562	134.9396362304688	967.8221435546875	1012.030883789062	135.1695098876953	513.8988037109375	1088.219970703125	176.3984222412109	649.6276245117188	1093.361328125	139.054931640625	56.2391471862793	1133.127685546875	138.0086517333984	285.3497619628906	1119.921020507812	-52.26706314086914	79.08815002441406	1047.029418945312	17.5681037902832	54.24118423461914	1016.071899414062	17.2385082244873	64.27976989746094	1127.830078125	191.8487243652344	45.01956939697266	1081.283447265625	190.4311676025391	487.6510009765625	726.5355224609375	166.0168609619141	747.2266235351562	699.4970703125	267.5418701171875	38.02116394042969	743.3873291015625	189.9080047607422	360.5427856445312	746.219970703125	160.0788269042969	64.50453948974609	906.323974609375	229.3267669677734	54.22732925415039	898.2960205078125	171.5901031494141	29.7914924621582	800.8955078125	339.1162719726562	32.28898620605469	747.90234375	152.4686431884766	864.0955200195312	1261.319091796875	64.05565643310547	756.5740966796875	460.2074584960938	133.3527984619141	757.409423828125	446.0582275390625	75.33992767333984	788.6260986328125	1255.078857421875	270.8155212402344	971.44287109375	1060.732666015625	nan	nan	nan	nan	nan	nan	nan	nan	nan	
605	6.04	322.4815368652344	1014.110534667969	786.7279052734375	330.6063842773438	1013.283813476562	961.75146484375	301.6830749511719	1087.161254882812	857.7605590820312	29.13702011108398	1231.043334960938	847.7194213867188	299.9102783203125	1198.833862304688	829.2933959960938	225.8771209716797	1434.754516601562	809.1558227539062	80.75656127929688	1336.55419921875	830.4066772460938	284.7560729980469	1294.412353515625	747.7496948242188	257.7957458496094	1413.915405273438	914.0679321289062	174.7465209960938	1419.322631835938	971.9874267578125	226.3044891357422	1326.920532226562	1065.638549804688	240.9142150878906	1139.279296875	1132.135009765625	284.2147521972656	1102.62646484375	1065.896240234375	110.4631195068359	956.2616577148438	1191.123413085938	166.4028930664062	944.0591430664062	1236.979370117188	220.2608032226562	1050.747680664062	1178.777221679688	75.60762786865234	879.319580078125	1250.857055664062	145.2998504638672	1386.939453125	664.7850341796875	155.2471618652344	1326.026123046875	604.3291015625	215.5454864501953	1072.398315429688	553.69970703125	218.5390319824219	1052.013549804688	646.3663940429688	94.77742767333984	856.1409912109375	520.606201171875	173.4943389892578	854.0428466796875	483.9764404296875	200.5919036865234	1007.374938964844	526.041259765625	88.44732666015625	677.6538696289062	466.19287109375	171.3253631591797	1586.940185546875	744.3861694335938	10.65874862670898	1608.275512695312	880.99267578125	1.5542151927948	1605.655151367188	788.9481811523438	185.9110107421875	1581.14111328125	890.07373046875	217.5746612548828	953.3803100585938	692.4336547851562	100.3829803466797	949.9405517578125	766.70947265625	132.3011474609375	966.937255859375	1015.275634765625	132.6963043212891	512.57177734375	1088.719116210938	173.589599609375	648.3218994140625	1094.837036132812	133.2507019042969	54.79544067382812	1131.504272460938	133.7771911621094	283.8442687988281	1119.212524414062	-57.19105529785156	79.70941925048828	1044.014282226562	12.67897510528564	54.02749252319336	1013.5576171875	11.53249549865723	64.02692413330078	1125.341796875	186.3489227294922	43.29206085205078	1080.027465820312	188.96484375	487.5488891601562	728.5	164.247802734375	747.0636596679688	702.3175048828125	267.6114196777344	38.11106109619141	743.5204467773438	188.8526916503906	360.26953125	747.7570190429688	160.3849182128906	63.95415115356445	906.9917602539062	229.5543518066406	53.62319946289062	898.575439453125	171.5997009277344	29.84939765930176	800.9788818359375	339.1842041015625	32.34586715698242	748.0103759765625	139.4057006835938	865.2979125976562	1265.10791015625	79.27942657470703	753.0380859375	456.6739807128906	149.2177886962891	755.748291015625	445.924072265625	61.82626724243164	790.3961181640625	1257.583984375	267.8559265136719	970.656005859375	1064.378540039062	nan	nan	nan	nan	nan	nan	nan	nan	nan	
606	6.05	320.1142578125	1013.937133789062	790.530517578125	327.7611389160156	1012.803894042969	965.6201171875	299.29052734375	1086.627319335938	861.9185791015625	27.19275856018066	1230.45751953125	850.0423583984375	297.8825378417969	1198.003173828125	833.9159545898438	224.3325500488281	1434.208862304688	813.1050415039062	78.856201171875	1335.884399414062	833.1696166992188	283.6750183105469	1293.731323242188	752.3723754882812	255.2533264160156	1413.414306640625	918.3961791992188	171.6610107421875	1418.981689453125	975.348388671875	221.4218597412109	1326.306762695312	1069.776977539062	233.4180450439453	1138.719604492188	1136.64453125	277.7759094238281	1101.63525390625	1071.385864257812	100.1175079345703	957.0897216796875	1193.186767578125	154.8533782958984	944.7066650390625	1240.466186523438	211.0433959960938	1050.6025390625	1183.05908203125	63.20753860473633	880.940185546875	1252.611450195312	145.1528625488281	1386.185668945312	668.02294921875	156.0313415527344	1325.48974609375	607.5908203125	218.0777893066406	1072.407470703125	556.9426879882812	219.443603515625	1051.498657226562	649.4362182617188	104.3044586181641	853.2592163085938	519.1542358398438	184.6919555664062	853.2223510742188	485.7558288574219	205.6490020751953	1007.233337402344	528.6433715820312	105.0431671142578	674.86669921875	464.3450317382812	170.2259826660156	1586.42138671875	747.730712890625	8.303688049316406	1607.697387695312	882.8935546875	0.04437611624598503	1604.949584960938	790.7930908203125	183.5430755615234	1580.775268554688	893.5536499023438	215.460693359375	953.3143920898438	695.8243408203125	97.95175933837891	949.5897827148438	769.7078247070312	129.3294525146484	966.21435546875	1018.6044921875	130.0164184570312	511.2013244628906	1089.24658203125	170.5746612548828	646.997802734375	1096.387573242188	128.090087890625	53.3752555847168	1129.892211914062	129.7277069091797	282.2994995117188	1118.530151367188	-61.62371063232422	79.85805511474609	1041.2294921875	8.260326385498047	53.51163101196289	1011.217407226562	6.460623741149902	63.56340026855469	1123.028930664062	181.4224090576172	41.65930557250977	1078.751953125	187.4876861572266	487.44140625	730.4337768554688	162.2916259765625	746.9031982421875	705.1312866210938	267.6780090332031	38.19292449951172	743.6350708007812	187.7828216552734	360.0100402832031	749.2632446289062	160.6867828369141	63.39582443237305	907.6591796875	229.77392578125	53.03399658203125	898.8726806640625	171.6081085205078	29.91449546813965	801.0625610351562	339.2426147460938	32.40590286254883	748.1023559570312	126.5000381469727	866.31884765625	1268.387573242188	94.34219360351562	749.943603515625	454.3331909179688	164.6953887939453	754.4512939453125	446.7086181640625	48.53265762329102	792.064208984375	1259.6435546875	264.8478088378906	969.7932739257812	1068.006958007812	nan	nan	nan	nan	nan	nan	nan	nan	nan	
